<?xml version="1.0" encoding="UTF-8"?>
<svg version="1.1" viewBox="0 0 2048 409" width="565" height="113" xmlns="http://www.w3.org/2000/svg">
<path transform="translate(0)" d="m0 0h2048v409h-2048z" fill="transparent"/>
<path transform="translate(1230,108)" d="m0 0 45 1-5 25-13 57-11 44-12 41-10 30-1 1h-39l-3-5-21-63-13-42-2-5-2 6-18 58-12 37-5 13-1 1h-38l-3-2-12-38-12-43-12-49-14-63v-3h49l7 42 13 62 7 29v3h2l3-11 13-41 17-62 1-1h38l7 24 19 63 7 22 2 5 2-6 11-50 10-54 4-23z" fill="#FFFFFF"/>
<path transform="translate(1690,108)" d="m0 0h41l5 8 11 22 16 36 10 22 12 28 2-3 10-24 12-27 13-28 12-25 4-8 3-1 39 1 5 43 5 60 5 86v8l-1 1h-42l-1-7-3-73-3-44-1-4-5 12-11 25-14 33-11 26-3 6h-31l-4-6-12-29-16-38-13-29h-1l-2 36-2 37-2 47-1 7-1 1h-41l-1-4 5-85 5-62 5-43z" fill="#FFFFFF"/>
<path transform="translate(1521,107)" d="m0 0h42l18 2 14 4 15 6 10 7 5 4 9 14 4 16v23l-4 15-9 13-10 8-12 6 2 4 14 20 13 21 13 24 5 10v3h-48l-4-4-16-29-22-33-4-5-2-1h-20l-1 71-1 1h-43v-196z" fill="#FFFFFF"/>
<path transform="translate(676,107)" d="m0 0h43l18 2 17 5 16 8 8 6 7 8 6 13 3 15v18l-4 18-5 10-9 10-10 7-10 5-19 5-23 3-12 1h-14v46l-1 19-1 1h-42l-1-1v-194l6-2z" fill="#FFFFFF"/>
<path transform="translate(885,109)" d="m0 0h44l7 15 17 38 16 40 16 41 17 47 5 15v2h-48l-3-5-12-36-14-41-13-35-10-26-2-1-3 10-12 31-17 48-16 48-3 7h-46l-1-2 14-41 17-44 14-36 19-44 11-25z" fill="#FFFFFF"/>
<path transform="translate(1383,104)" d="m0 0h21l19 2 15 4 17 8 2 4-10 27-2 6-5-1-13-5-13-3-10-1h-15l-14 3-11 6-7 6-9 14-4 11-2 12v15l2 17 5 15 8 11 10 8 12 5 9 2h20l19-3 17-6 5-1 10 32 1 4-10 5-16 5-21 4-16 1-24-2-17-4-15-6-11-7-10-9-8-9-8-15-5-15-3-15-1-11v-21l3-19 5-16 9-17 7-9 12-12 13-8 16-7 16-4z" fill="#FFFFFF"/>
<path transform="translate(214,180)" d="m0 0h12l16 2 12 4 1 2-10 13-8 13-6 14-4 17v27l4 18 7 16 7 11 8 10 2 4-15 5-7 1h-22l-16-4-14-7-13-10-9-10-8-13-6-20-1-7v-16l3-15 6-14 9-13 9-9 10-7 16-8z" fill="#FFFFFF"/>
<path transform="translate(212,77)" d="m0 0h22l15 4 16 8 10 7 10 10 8 13 5 12 3 12 1 8v10l-2 13-4 13-5-2-13-10-16-8-10-4-7-2-23-2-22 2-15 5-17 9-9 7-6 5h-3l-4-12-2-12v-17l3-14 5-12 6-10 9-10 9-8 13-8 14-5z" fill="#FFFFFF"/>
<path transform="translate(319,77)" d="m0 0h19l15 4 16 8 9 7 11 11 7 11 5 11 3 11 1 6v21l-4 16-8 16-11 13-11 9-8 5-17 6-8 2h-19l-16-3-9-4v-2l6-5 9-13 7-14 5-16 2-13v-14l-3-18-6-18-9-16-11-13 1-2 12-4z" fill="#FFFFFF"/>
<path transform="translate(254,227)" d="m0 0 4 2 14 11 8 5 19 7 13 3h28l16-4 16-6 12-7 13-11 3 3 4 12 1 6v22l-4 16-8 16-9 11-9 8-11 7-11 5-14 4-10 1-16-1-16-5-14-7-10-8-9-9-8-12-6-16-2-10v-22l3-13z" fill="#FFFFFF"/>
<path transform="translate(688,145)" d="m0 0h33l12 3 9 6 4 6 2 7v13l-3 8-7 8-14 5-15 2h-21z" fill="#000000"/>
</svg>
