<?xml version="1.0" encoding="utf-8"?>
<!-- Generator: Adobe Illustrator 28.0.0, SVG Export Plug-In . SVG Version: 6.00 Build 0)  -->
<svg version="1.1" id="Layer_1" xmlns="http://www.w3.org/2000/svg" xmlns:xlink="http://www.w3.org/1999/xlink" x="0px" y="0px"
	 viewBox="0 0 512 512" style="enable-background:new 0 0 512 512;" xml:space="preserve">
<style type="text/css">
	.st1{fill:#FFFFFF;}
</style>
<path class="st1" d="M489.5,202.1h-22.5v-31.4h-49.3l-22.7,31.4h-40.3l-13.5,13.5v-13.5h-31.4v-31.4h-98.8v31.4h-139l-22.7-31.4H0
			v107.8l62.9,62.9h62.9v-18l18,18H265v-18l18,18h58.4v-18l18,18h112.3l40.4-40.4v-76.4L489.5,202.1z M76.4,247H44.9v9h31.4v35.9
			H26.9L9,274v-94.3h35.9v31.4h31.4V247z M211.1,291.9H103.3l-18-18v-62.9h35.9V256h9v-44.9h35.9V256h9v-44.9h35.9V291.9z
			 M256,291.9h-35.9v-80.8H256V291.9z M256,202.1h-35.9v-22.5H256V202.1z M332.4,247h-31.4v9h31.4v35.9h-49.4l-18-18v-94.3h35.9
			v31.4h31.4V247z M413.2,247h-35.9v9h35.9v35.9h-53.9l-18-18v-44.9l18-18h53.9V247z M503,291.9h-35.9V247h-9v44.9h-35.9V179.6h35.9
			v31.4h26.9l18,18V291.9z"/>
</svg>
